<mxfile host="app.diagrams.net" agent="Mozilla/5.0 (Windows NT 10.0; Win64; x64) AppleWebKit/537.36 (KHTML, like Gecko) Chrome/132.0.0.0 Safari/537.36" version="26.0.14">
  <diagram name="PÃ¡gina-1" id="j-lHKbhfeB7L0qgNvqKT">
    <mxGraphModel dx="726" dy="454" grid="1" gridSize="10" guides="1" tooltips="1" connect="1" arrows="1" fold="1" page="1" pageScale="1" pageWidth="827" pageHeight="1169" background="none" math="0" shadow="0">
      <root>
        <mxCell id="0" />
        <mxCell id="1" parent="0" />
        <mxCell id="CzMwFxWqCHmVvyMAcMwd-1" value="" style="rounded=0;whiteSpace=wrap;html=1;" vertex="1" parent="1">
          <mxGeometry x="70" y="100" width="120" height="60" as="geometry" />
        </mxCell>
        <mxCell id="CzMwFxWqCHmVvyMAcMwd-2" value="" style="rounded=0;whiteSpace=wrap;html=1;" vertex="1" parent="1">
          <mxGeometry x="320" y="100" width="130" height="60" as="geometry" />
        </mxCell>
        <mxCell id="CzMwFxWqCHmVvyMAcMwd-3" value="" style="rounded=0;whiteSpace=wrap;html=1;" vertex="1" parent="1">
          <mxGeometry x="590" y="100" width="120" height="60" as="geometry" />
        </mxCell>
        <mxCell id="CzMwFxWqCHmVvyMAcMwd-4" value="" style="rhombus;whiteSpace=wrap;html=1;" vertex="1" parent="1">
          <mxGeometry x="210" y="90" width="80" height="80" as="geometry" />
        </mxCell>
        <mxCell id="CzMwFxWqCHmVvyMAcMwd-5" value="" style="rhombus;whiteSpace=wrap;html=1;" vertex="1" parent="1">
          <mxGeometry x="480" y="90" width="80" height="80" as="geometry" />
        </mxCell>
        <mxCell id="CzMwFxWqCHmVvyMAcMwd-6" value="Clientes" style="text;html=1;align=center;verticalAlign=middle;whiteSpace=wrap;rounded=0;" vertex="1" parent="1">
          <mxGeometry x="100" y="115" width="60" height="30" as="geometry" />
        </mxCell>
        <mxCell id="CzMwFxWqCHmVvyMAcMwd-7" value="Pr&lt;span style=&quot;background-color: transparent; color: light-dark(rgb(0, 0, 0), rgb(255, 255, 255));&quot;&gt;odutos&lt;/span&gt;" style="text;html=1;align=center;verticalAlign=middle;whiteSpace=wrap;rounded=0;" vertex="1" parent="1">
          <mxGeometry x="620" y="115" width="60" height="30" as="geometry" />
        </mxCell>
        <mxCell id="CzMwFxWqCHmVvyMAcMwd-8" value="Pedidos" style="text;html=1;align=center;verticalAlign=middle;whiteSpace=wrap;rounded=0;" vertex="1" parent="1">
          <mxGeometry x="354" y="115" width="60" height="30" as="geometry" />
        </mxCell>
        <mxCell id="CzMwFxWqCHmVvyMAcMwd-60" value="" style="edgeStyle=orthogonalEdgeStyle;rounded=0;orthogonalLoop=1;jettySize=auto;html=1;" edge="1" parent="1" source="CzMwFxWqCHmVvyMAcMwd-9" target="CzMwFxWqCHmVvyMAcMwd-6">
          <mxGeometry relative="1" as="geometry" />
        </mxCell>
        <mxCell id="CzMwFxWqCHmVvyMAcMwd-9" value="Id Cliente" style="ellipse;whiteSpace=wrap;html=1;align=center;" vertex="1" parent="1">
          <mxGeometry x="80" y="40" width="100" height="40" as="geometry" />
        </mxCell>
        <mxCell id="CzMwFxWqCHmVvyMAcMwd-58" value="" style="edgeStyle=orthogonalEdgeStyle;rounded=0;orthogonalLoop=1;jettySize=auto;html=1;" edge="1" parent="1" source="CzMwFxWqCHmVvyMAcMwd-15" target="CzMwFxWqCHmVvyMAcMwd-6">
          <mxGeometry relative="1" as="geometry" />
        </mxCell>
        <mxCell id="CzMwFxWqCHmVvyMAcMwd-15" value="Nome" style="ellipse;whiteSpace=wrap;html=1;align=center;" vertex="1" parent="1">
          <mxGeometry x="30" y="210" width="100" height="40" as="geometry" />
        </mxCell>
        <mxCell id="CzMwFxWqCHmVvyMAcMwd-57" value="" style="edgeStyle=orthogonalEdgeStyle;rounded=0;orthogonalLoop=1;jettySize=auto;html=1;" edge="1" parent="1" source="CzMwFxWqCHmVvyMAcMwd-17" target="CzMwFxWqCHmVvyMAcMwd-6">
          <mxGeometry relative="1" as="geometry" />
        </mxCell>
        <mxCell id="CzMwFxWqCHmVvyMAcMwd-17" value="E-mail" style="ellipse;whiteSpace=wrap;html=1;align=center;" vertex="1" parent="1">
          <mxGeometry x="130" y="210" width="100" height="40" as="geometry" />
        </mxCell>
        <mxCell id="CzMwFxWqCHmVvyMAcMwd-56" value="" style="edgeStyle=orthogonalEdgeStyle;rounded=0;orthogonalLoop=1;jettySize=auto;html=1;" edge="1" parent="1" source="CzMwFxWqCHmVvyMAcMwd-26" target="CzMwFxWqCHmVvyMAcMwd-8">
          <mxGeometry relative="1" as="geometry" />
        </mxCell>
        <mxCell id="CzMwFxWqCHmVvyMAcMwd-26" value="Id Cliente" style="ellipse;whiteSpace=wrap;html=1;align=center;" vertex="1" parent="1">
          <mxGeometry x="290" y="210" width="100" height="40" as="geometry" />
        </mxCell>
        <mxCell id="CzMwFxWqCHmVvyMAcMwd-55" value="" style="edgeStyle=orthogonalEdgeStyle;rounded=0;orthogonalLoop=1;jettySize=auto;html=1;" edge="1" parent="1" source="CzMwFxWqCHmVvyMAcMwd-27" target="CzMwFxWqCHmVvyMAcMwd-8">
          <mxGeometry relative="1" as="geometry" />
        </mxCell>
        <mxCell id="CzMwFxWqCHmVvyMAcMwd-27" value="Id Produto" style="ellipse;whiteSpace=wrap;html=1;align=center;" vertex="1" parent="1">
          <mxGeometry x="390" y="210" width="100" height="40" as="geometry" />
        </mxCell>
        <mxCell id="CzMwFxWqCHmVvyMAcMwd-28" value="" style="edgeStyle=entityRelationEdgeStyle;fontSize=12;html=1;endArrow=ERzeroToMany;endFill=1;rounded=0;entryX=0;entryY=0.5;entryDx=0;entryDy=0;" edge="1" parent="1" target="CzMwFxWqCHmVvyMAcMwd-2">
          <mxGeometry width="100" height="100" relative="1" as="geometry">
            <mxPoint x="160" y="130" as="sourcePoint" />
            <mxPoint x="260" y="30" as="targetPoint" />
          </mxGeometry>
        </mxCell>
        <mxCell id="CzMwFxWqCHmVvyMAcMwd-29" value="" style="edgeStyle=entityRelationEdgeStyle;fontSize=12;html=1;endArrow=ERzeroToMany;endFill=1;rounded=0;entryX=0;entryY=0.5;entryDx=0;entryDy=0;" edge="1" parent="1" target="CzMwFxWqCHmVvyMAcMwd-3">
          <mxGeometry width="100" height="100" relative="1" as="geometry">
            <mxPoint x="430" y="130" as="sourcePoint" />
            <mxPoint x="530" y="30" as="targetPoint" />
          </mxGeometry>
        </mxCell>
        <mxCell id="CzMwFxWqCHmVvyMAcMwd-61" value="" style="edgeStyle=orthogonalEdgeStyle;rounded=0;orthogonalLoop=1;jettySize=auto;html=1;" edge="1" parent="1" source="CzMwFxWqCHmVvyMAcMwd-32" target="CzMwFxWqCHmVvyMAcMwd-8">
          <mxGeometry relative="1" as="geometry" />
        </mxCell>
        <mxCell id="CzMwFxWqCHmVvyMAcMwd-32" value="Data" style="ellipse;whiteSpace=wrap;html=1;align=center;" vertex="1" parent="1">
          <mxGeometry x="280" y="40" width="100" height="40" as="geometry" />
        </mxCell>
        <mxCell id="CzMwFxWqCHmVvyMAcMwd-62" value="" style="edgeStyle=orthogonalEdgeStyle;rounded=0;orthogonalLoop=1;jettySize=auto;html=1;" edge="1" parent="1" source="CzMwFxWqCHmVvyMAcMwd-38" target="CzMwFxWqCHmVvyMAcMwd-8">
          <mxGeometry relative="1" as="geometry" />
        </mxCell>
        <mxCell id="CzMwFxWqCHmVvyMAcMwd-38" value="Id Pedido" style="ellipse;whiteSpace=wrap;html=1;align=center;" vertex="1" parent="1">
          <mxGeometry x="380" y="40" width="100" height="40" as="geometry" />
        </mxCell>
        <mxCell id="CzMwFxWqCHmVvyMAcMwd-54" value="" style="edgeStyle=orthogonalEdgeStyle;rounded=0;orthogonalLoop=1;jettySize=auto;html=1;" edge="1" parent="1" source="CzMwFxWqCHmVvyMAcMwd-45" target="CzMwFxWqCHmVvyMAcMwd-7">
          <mxGeometry relative="1" as="geometry" />
        </mxCell>
        <mxCell id="CzMwFxWqCHmVvyMAcMwd-45" value="Id Produto" style="ellipse;whiteSpace=wrap;html=1;align=center;" vertex="1" parent="1">
          <mxGeometry x="600" y="30" width="100" height="40" as="geometry" />
        </mxCell>
        <mxCell id="CzMwFxWqCHmVvyMAcMwd-53" value="" style="edgeStyle=orthogonalEdgeStyle;rounded=0;orthogonalLoop=1;jettySize=auto;html=1;" edge="1" parent="1" source="CzMwFxWqCHmVvyMAcMwd-47" target="CzMwFxWqCHmVvyMAcMwd-7">
          <mxGeometry relative="1" as="geometry" />
        </mxCell>
        <mxCell id="CzMwFxWqCHmVvyMAcMwd-47" value="Valor" style="ellipse;whiteSpace=wrap;html=1;align=center;" vertex="1" parent="1">
          <mxGeometry x="550" y="200" width="100" height="40" as="geometry" />
        </mxCell>
        <mxCell id="CzMwFxWqCHmVvyMAcMwd-51" value="" style="edgeStyle=orthogonalEdgeStyle;rounded=0;orthogonalLoop=1;jettySize=auto;html=1;" edge="1" parent="1" source="CzMwFxWqCHmVvyMAcMwd-49" target="CzMwFxWqCHmVvyMAcMwd-7">
          <mxGeometry relative="1" as="geometry" />
        </mxCell>
        <mxCell id="CzMwFxWqCHmVvyMAcMwd-49" value="Marca" style="ellipse;whiteSpace=wrap;html=1;align=center;" vertex="1" parent="1">
          <mxGeometry x="650" y="200" width="100" height="40" as="geometry" />
        </mxCell>
        <mxCell id="CzMwFxWqCHmVvyMAcMwd-63" value="&lt;h1 style=&quot;margin-top: 0px;&quot;&gt;Diagrama ER-Projeto Loja&amp;nbsp;&lt;/h1&gt;&lt;p&gt;Desenvolvido por: Nathan Manoel Mello de Azevedo&lt;/p&gt;" style="text;html=1;whiteSpace=wrap;overflow=hidden;rounded=0;" vertex="1" parent="1">
          <mxGeometry y="280" width="330" height="120" as="geometry" />
        </mxCell>
      </root>
    </mxGraphModel>
  </diagram>
</mxfile>
